<svg width="63" height="40" viewBox="0 0 63 40" fill="none" xmlns="http://www.w3.org/2000/svg">
<path fill-rule="evenodd" clip-rule="evenodd" d="M17.1623 8.0284C16.847 8.07466 16.5635 8.13832 16.5321 8.16982C16.4229 8.27985 15.8607 10.561 15.9429 10.561C15.9884 10.561 16.2775 10.495 16.5852 10.4143C17.2974 10.2276 18.3711 10.2258 18.8107 10.4108C19.1953 10.5726 19.4356 11.0232 19.4356 11.583C19.4356 11.9836 19.4286 11.9863 18.1421 12.0769C17.2343 12.1407 16.0397 12.4085 15.5687 12.6537C15.2686 12.8099 15.2706 12.8039 14.4605 15.9594L14.2422 16.8098L14.5352 17.2296C14.7304 17.5091 15.0194 17.7477 15.4005 17.9439C15.9015 18.2018 16.0706 18.2379 16.7569 18.2334C17.6883 18.2273 18.354 17.9959 19.1135 17.4144L19.6173 17.0287L19.6794 17.3403C19.8195 18.0422 19.7154 17.9941 21.0937 17.9941H22.3503V14.3856C22.3503 11.0682 22.3348 10.7268 22.1583 10.1516C21.6185 8.39232 19.8375 7.63542 17.1623 8.0284ZM16.9096 14.9219C16.9096 14.3057 17.2254 13.9527 17.9297 13.7816C18.09 13.7427 18.4944 13.7063 18.8284 13.7007L19.4356 13.6907V14.5724V15.454L19.1198 15.6497C18.5739 15.988 18.1242 16.0837 17.692 15.9533C17.1844 15.8003 16.9096 15.4379 16.9096 14.9219Z" fill="#FAFAFA"/>
<path d="M10.643 0.133786C10.4826 0.204107 10.2974 0.327341 10.2312 0.40754C10.1169 0.546128 0.00452587 38.9915 0.00452587 39.2873C0.00452587 39.583 -0.0888343 39.9995 0.572496 39.9999C1.23383 40.0003 3.03315 39.9995 3.03315 39.9995C5.86561 39.9991 5.9753 39.9719 6.25909 39.2013C6.49946 38.5485 16.2332 0.40754 16.2332 0.40754C16.2332 0.40754 16.2472 0.294575 16.0875 0.133786C15.9278 -0.0270027 13.298 0.00204655 13.298 0.00204655C11.5722 0.00488285 10.8558 0.040384 10.643 0.133786Z" fill="#FAFAFA"/>
<path d="M21.35 22.228C21.2322 22.3511 20.174 23.846 18.9984 25.5498C17.8228 27.2535 16.8309 28.6381 16.794 28.6267C16.7572 28.6152 15.8428 27.3294 14.762 25.7695C12.4845 22.4823 12.7431 22.8403 12.6869 22.897C12.6869 22.897 9.02393 36.9091 9.04375 37.1812V37.6702L10.6324 37.6307L12.1527 37.6702C12.1527 37.6702 12.0231 27.934 11.9899 27.591C11.9409 27.0857 11.9549 26.9757 12.0635 27.0113C12.1372 27.0354 13.1604 28.4384 14.3373 30.1289C16.3055 32.9561 16.5015 33.205 16.7815 33.2325C17.0791 33.2618 17.1346 33.1923 19.2566 30.1307C20.4505 28.4082 21.4829 26.9973 21.551 26.9954C21.6452 26.9928 21.6621 27.1726 21.6219 27.75C21.4147 30.7238 21.2939 37.1207 21.4377 37.4979C21.5261 37.7299 24.4374 37.7299 24.5259 37.4979C24.5583 37.4128 24.5848 33.9447 24.5848 29.791C24.5848 24.0474 24.5569 22.2107 24.4682 22.1214C24.3884 22.041 23.9124 22.004 22.958 22.004C21.6325 22.004 21.5537 22.015 21.35 22.228Z" fill="#FAFAFA"/>
<path d="M27.2566 8.01548C26.2556 8.23877 25.5109 8.64289 24.8639 9.31402C24.035 10.1738 23.7133 11.2336 23.7133 13.1039C23.7133 15.0451 24.0465 16.0791 24.9657 16.9898C25.8637 17.8797 27.229 18.352 28.6168 18.2526C29.4027 18.1964 30.4143 17.9539 30.9485 17.6936L31.24 17.5517L31.2675 16.3917L31.295 15.2315L31.0731 15.2837C30.9511 15.3122 30.5234 15.4561 30.1227 15.6033C28.8728 16.0623 27.8845 15.9424 27.2695 15.2571C26.8276 14.7647 26.7233 14.3535 26.7233 13.1039C26.7233 11.8005 26.8351 11.3996 27.3406 10.8911C28.0414 10.186 29.0144 10.128 30.4487 10.7057C30.7855 10.8413 31.1121 10.9522 31.1747 10.9522C31.3413 10.9522 31.3326 8.76358 31.1654 8.62392C31.0978 8.56739 30.6935 8.40318 30.2669 8.25902C29.4186 7.97235 27.9738 7.85548 27.2566 8.01548Z" fill="#FAFAFA"/>
<path d="M37.4806 8.02047C37.0242 8.13656 36.4169 8.44357 35.8793 8.83009C35.6523 8.99333 35.2926 9.08514 35.2757 9.06264C35.2586 9.04015 35.2233 8.26263 35.2233 8.26263H33.9603H32.6973V17.9452H34.106H35.5148L35.5403 14.4171L35.5658 10.8891L35.9383 10.6784C36.8766 10.1474 37.9392 10.1961 38.2588 10.7847C38.4107 11.0643 38.4328 11.4785 38.4594 14.5465L38.4894 17.9941H39.882C41.0943 17.9941 41.2828 17.9729 41.3371 17.8305C41.3714 17.7405 41.3933 16.1451 41.3858 14.2851L41.3721 10.9033L41.8424 10.6403C42.7209 10.1493 43.7133 10.2093 44.0324 10.7728C44.1305 10.9462 44.1733 11.8369 44.2102 14.4732L44.2588 17.9452H45.6675H47.0763L47.1017 14.1843C47.13 10.0055 47.1029 9.76392 46.5168 8.97817C45.8289 8.05607 44.3258 7.67806 43.0609 8.10918C42.4339 8.32298 41.8522 8.64808 41.3609 9.05954C41.2099 9.1861 41.0569 9.28859 41.0209 9.28752C40.9849 9.28634 40.8344 9.11313 40.6866 8.90256C40.2915 8.34039 39.5582 8.00972 38.6047 7.96394C38.1877 7.94389 37.6819 7.96932 37.4806 8.02047Z" fill="#FAFAFA"/>
<path d="M28.4748 22.0216V37.5724H31.4866V22.0216H28.4748Z" fill="#FAFAFA"/>
<path d="M37.6222 22.0001C36.633 22.2699 36.0314 22.6272 35.3718 23.3371C34.4057 24.3767 34.079 25.7345 34.4774 27.0547C34.9481 28.6147 35.6342 29.231 38.8667 30.9979C40.7068 32.0037 41.1984 32.5383 41.1984 33.5334C41.1984 34.1073 40.9241 34.5023 40.2875 34.8451C39.9536 35.0248 39.7328 35.0604 38.9638 35.0583C38.125 35.056 37.9821 35.0271 37.3956 34.7406C37.0408 34.5672 36.5316 34.2272 36.2641 33.9851C35.9966 33.743 35.7185 33.5456 35.6462 33.5466C35.4666 33.5491 34.0089 35.344 34.0089 35.5627C34.0089 35.8636 35.0196 36.7229 35.8749 37.1491C36.971 37.6954 37.9948 37.946 39.1302 37.946C42.0065 37.946 43.9863 36.5515 44.4042 34.2311C44.6157 33.0566 44.2941 31.6973 43.5705 30.7079C42.9822 29.9033 41.9296 29.146 40.077 28.1943C38.297 27.28 37.7725 26.9263 37.5479 26.489C37.3403 26.085 37.4166 25.4876 37.7171 25.1638C38.1384 24.7097 38.4623 24.6015 39.401 24.6015C40.3799 24.6015 40.9915 24.7684 41.722 25.2347C41.9721 25.3943 42.2094 25.525 42.2494 25.525C42.2894 25.525 42.583 24.9932 42.9018 24.3432L43.4815 23.1614L43.2386 22.9597C42.8972 22.6762 41.9359 22.2361 41.247 22.0479C40.9263 21.9604 40.1394 21.8702 39.4982 21.8476C38.5484 21.8142 38.2008 21.8425 37.6222 22.0001Z" fill="#FAFAFA"/>
<path d="M47.0514 22.085C46.9548 22.1467 46.9345 23.7717 46.9542 29.8834L46.9791 37.6037H48.485H49.9909L50.0158 29.8834C50.0355 23.7717 50.0152 22.1467 49.9187 22.085C49.8515 22.0421 49.2064 22.0071 48.485 22.0071C47.7636 22.0071 47.1185 22.0421 47.0514 22.085Z" fill="#FAFAFA"/>
<path d="M56.194 21.9958C55.8118 22.1004 55.3309 22.2727 55.1253 22.3787C53.1747 23.3844 52.3313 25.7049 53.2249 27.6076C53.7704 28.7689 54.686 29.5362 56.9861 30.7589C57.5739 31.0714 58.3098 31.5001 58.6212 31.7114C60.0337 32.6697 60.1512 34.0974 58.8769 34.8163C58.499 35.0294 58.3247 35.0608 57.5184 35.0608C56.67 35.0608 56.54 35.0343 55.9479 34.7409C55.5929 34.5649 55.0846 34.2239 54.8184 33.9829C54.5522 33.742 54.2714 33.5449 54.1946 33.5449C54.1176 33.5449 53.6978 33.9893 53.2617 34.5325L52.4687 35.5201L52.4749 35.5123C52.4749 35.5123 54.6312 37.3962 56.0058 37.7488C57.9705 38.2529 60.3607 37.7963 61.626 36.6751C63.1445 35.3295 63.4504 32.7892 62.3126 30.9747C61.7007 29.999 60.7657 29.3023 58.4948 28.1303C57.665 27.7019 56.8209 27.2218 56.6189 27.0634C55.9236 26.5181 55.7633 25.7825 56.2204 25.2356C56.6489 24.723 56.9816 24.6015 57.9577 24.6015C58.9388 24.6015 59.5482 24.7684 60.2849 25.2387C60.5947 25.4365 60.7825 25.5022 60.8577 25.4392C60.9192 25.3876 61.2099 24.8539 61.5038 24.2532L62.0382 23.1611L61.7953 22.9596C61.4513 22.6741 60.4887 22.2347 59.8036 22.0503C59.483 21.964 58.6961 21.8738 58.0548 21.8496C57.1049 21.8138 56.7602 21.8409 56.194 21.9958Z" fill="#FAFAFA"/>
</svg>
