<svg width="56" height="40" viewBox="0 0 56 40" fill="none" xmlns="http://www.w3.org/2000/svg">
<path d="M44.0485 14.9573L35.8574 22.3932V14.9573L39.9526 11.2395L35.8568 7.43606L19.4748 22.3075H11.2837L35.8574 0L44.0482 7.43606L44.0485 14.9573Z" fill="#FAFAFA"/>
<path d="M35.8565 25.0427L44.0476 17.6068V25.0427L39.9523 28.7608L44.0476 32.5641V40L35.8565 32.5641V25.0427Z" fill="#FAFAFA"/>
<path d="M47.3903 7.43573V22.3077L55.5813 14.8718L47.3903 7.43573Z" fill="#FAFAFA"/>
<path d="M47.8085 24.9574L55.9996 17.5215L56 24.9576L51.9045 28.6755L55.9996 32.4788V39.9147L47.8085 32.4788V24.9574Z" fill="#FAFAFA"/>
<path d="M21.2332 30.6099L27.4138 25.0533L8.26499 25.0428L0 32.4787V39.9146L10.3123 30.61L21.2332 30.6099Z" fill="#FAFAFA"/>
</svg>
