<svg width="117" height="40" viewBox="0 0 117 40" fill="none" xmlns="http://www.w3.org/2000/svg">
<path d="M80.6747 1.07143C80.6747 0.874184 80.8353 0.714286 81.0333 0.714286H116.641C116.948 0.714286 117.113 1.07425 116.912 1.30548L106.972 12.7162C106.895 12.8045 106.866 12.9247 106.895 13.038L109.963 25.0908C110.02 25.3165 109.849 25.5357 109.615 25.5357H86.7702C86.5721 25.5357 86.4116 25.3758 86.4116 25.1786V24.4643C86.4116 24.267 86.5721 24.1071 86.7702 24.1071H107.815C108.051 24.1071 108.223 23.8839 108.161 23.657L105.285 13.0384C105.254 12.9249 105.281 12.8036 105.358 12.7141L113.87 2.73961C114.069 2.50629 113.9 2.14793 113.593 2.15119L81.0371 2.49616C80.8376 2.49827 80.6747 2.33777 80.6747 2.13904V1.07143Z" fill="#75E3C9"/>
<path d="M27.5825 16.2358C27.6093 16.075 27.6093 15.9678 27.6093 15.1641C27.6093 11.7616 24.9262 9.13597 21.4381 9.13597C15.7499 9.13597 11.7252 14.923 11.7252 23.0944C11.7252 27.8366 14.0864 30.7569 17.9501 30.7569C21.7064 30.7569 24.7384 28.3724 25.8653 24.5412H36.8929C35.5513 33.7843 27.6093 40 17.1451 40C6.76146 40 0 33.6236 0 23.791C0 9.29672 8.82747 0 22.6187 0C31.9828 0 38.7443 6.08171 38.7443 14.5211C38.7443 15.1909 38.6906 15.8071 38.6101 16.2358H27.5825Z" fill="white"/>
<path d="M57.4188 39.3302H46.0424L52.3477 9.6718H41.5884L43.5202 0.669792H76.4153L74.4834 9.6718H63.7241L57.4188 39.3302Z" fill="white"/>
<path d="M84.0085 39.3302H72.1491L80.3863 0.669792H107.566L105.634 9.6718H90.3138L88.7308 17.1199H102.576L100.724 25.6397H86.9063L84.0085 39.3302Z" fill="white"/>
</svg>
