<svg width="181" height="40" viewBox="0 0 181 40" fill="none" xmlns="http://www.w3.org/2000/svg">
<path fill-rule="evenodd" clip-rule="evenodd" d="M40.3896 39.0759L57.1786 0.669922H69.9075L86.6964 39.0759H73.3091L70.7364 32.3823H56.1302L53.5574 39.0759H40.3896ZM67.1515 23.0551H59.7151L63.4333 13.3813L67.1515 23.0551Z" fill="white"/>
<path d="M142.812 39.0759V0.669922H153.456L168.051 18.1339V0.669922H180.67V39.0759H170.026L155.432 21.612V39.0759H142.812Z" fill="white"/>
<path fill-rule="evenodd" clip-rule="evenodd" d="M133.404 11.4286V8.57143V5.71429H130.543V2.85714H127.683V0H124.823H121.963V2.85714H119.103V5.71429H116.242V8.57143H113.382H110.522V5.71429H107.662V2.85714H104.802V0H101.942H99.0815V2.85714H96.2213V5.71429H93.3611V8.57143V11.4286H90.501V14.2857V17.1429V20V22.8571V25.7143V28.5714V31.4286H93.3611V34.2857V37.1429H96.2213H99.0815V40H101.942H104.802H107.662H110.522H113.382H116.242H119.103H121.963H124.823H127.683V37.1429H130.543H133.404V34.2857V31.4286H136.264V28.5714V25.7143V22.8571V20V17.1429V14.2857V11.4286H133.404Z" fill="white"/>
<path d="M116.193 19.9043V25.6254H121.914V19.9043H116.193Z" fill="#565656"/>
<path d="M104.751 19.9043H99.0303V25.6254H104.751V19.9043Z" fill="#565656"/>
<path fill-rule="evenodd" clip-rule="evenodd" d="M28.7219 35.7432H31.9132V32.5519H35.1045V29.3606H38.2959V10.2126H35.1045V7.02131H31.9132V3.82999H28.7219V0.638672H0V38.9345H28.7219V35.7432ZM25.5306 22.9779V19.7866V16.5953H22.3393V13.404H19.1479H15.9566H12.7653V16.5953V19.7866V22.9779V26.1692H15.9566H19.1479H22.3393V22.9779H25.5306Z" fill="white"/>
</svg>
