<svg width="60" height="40" viewBox="0 0 60 40" fill="none" xmlns="http://www.w3.org/2000/svg">
<path d="M25.494 9.37796C24.6481 9.37796 23.9989 9.20746 23.5464 8.86646C23.1202 8.53202 22.871 8.06643 22.7988 7.46968H24.5497C24.6415 7.9156 24.9563 8.13856 25.494 8.13856C26.2219 8.13856 26.5859 7.77789 26.5859 7.05655V6.26963C26.4482 6.5385 26.2481 6.7549 25.9858 6.91884C25.6973 7.11557 25.3661 7.21394 24.9924 7.21394C24.3563 7.21394 23.8415 7.00081 23.448 6.57456C23.0218 6.11553 22.8087 5.50567 22.8087 4.74498V4.66629C22.8087 3.92528 23.0218 3.32197 23.448 2.85638C23.8546 2.41046 24.3694 2.1875 24.9924 2.1875C25.7203 2.1875 26.2514 2.47604 26.5859 3.05311V2.32521H28.3466V7.03688C28.3466 7.80412 28.104 8.38448 27.6187 8.77793C27.1334 9.17795 26.4252 9.37796 25.494 9.37796ZM24.8743 5.60075C25.0514 5.8106 25.2973 5.91552 25.6121 5.91552C25.9268 5.91552 26.176 5.8106 26.3596 5.60075C26.5432 5.39091 26.6351 5.10237 26.6351 4.73514V4.66629C26.6351 4.30562 26.5465 4.02364 26.3695 3.82035C26.199 3.61051 25.9498 3.50559 25.6219 3.50559C25.294 3.50559 25.0415 3.61051 24.8645 3.82035C24.694 4.0302 24.6087 4.31546 24.6087 4.67613V4.75482C24.6087 5.10893 24.6973 5.39091 24.8743 5.60075Z" fill="white"/>
<path d="M30.2294 7.58772C29.7311 7.58772 29.3278 7.4664 29.0195 7.22377C28.6654 6.95491 28.4884 6.56145 28.4884 6.0434C28.4884 4.92204 29.3999 4.36136 31.2229 4.36136H31.7147V4.24332C31.7147 3.9679 31.6656 3.76461 31.5672 3.63346C31.4754 3.49575 31.2983 3.42689 31.036 3.42689C30.6229 3.42689 30.3901 3.63018 30.3376 4.03676H28.6851C28.7245 3.43345 28.9704 2.96786 29.4228 2.63998C29.8425 2.33833 30.4163 2.1875 31.1442 2.1875C31.8787 2.1875 32.4426 2.3416 32.8361 2.64981C33.2558 2.9777 33.4656 3.4728 33.4656 4.13512V7.46968H31.7541V6.86966C31.4459 7.34837 30.9377 7.58772 30.2294 7.58772ZM30.8393 6.39751C31.095 6.39751 31.3049 6.33193 31.4688 6.20078C31.6328 6.06307 31.7147 5.88601 31.7147 5.66961V5.35484H31.2524C30.8918 5.35484 30.6295 5.39747 30.4655 5.48272C30.3081 5.56141 30.2294 5.70568 30.2294 5.91552C30.2294 6.23685 30.4327 6.39751 30.8393 6.39751Z" fill="white"/>
<path d="M33.8585 2.32521H35.6192V3.11213C35.9602 2.49571 36.4979 2.1875 37.2324 2.1875C37.9209 2.1875 38.3865 2.47276 38.6292 3.04327C39.0489 2.47276 39.6161 2.1875 40.3309 2.1875C40.8358 2.1875 41.2391 2.34488 41.5408 2.65965C41.8555 3.02032 42.0129 3.50231 42.0129 4.10561V7.46968H40.2522V4.40071C40.2522 4.14496 40.1932 3.95151 40.0751 3.82035C39.9571 3.6892 39.7964 3.62362 39.5931 3.62362C39.3505 3.62362 39.1571 3.69904 39.0128 3.84986C38.8751 4.00069 38.8062 4.21381 38.8062 4.48923V7.46968H37.0652V4.40071C37.0652 4.14496 37.0061 3.95151 36.8881 3.82035C36.7701 3.6892 36.6094 3.62362 36.4061 3.62362C36.1635 3.62362 35.97 3.69904 35.8258 3.84986C35.6881 4.00069 35.6192 4.21381 35.6192 4.48923V7.46968H33.8585V2.32521Z" fill="white"/>
<path d="M44.929 7.58772C44.0896 7.58772 43.424 7.36148 42.9322 6.909C42.401 6.44341 42.1354 5.7942 42.1354 4.96138V4.88269C42.1354 4.0761 42.4043 3.42034 42.942 2.9154C43.46 2.43013 44.1191 2.1875 44.9191 2.1875C45.6733 2.1875 46.2864 2.40062 46.7585 2.82687C47.2766 3.29902 47.5356 3.97118 47.5356 4.84335V5.30566H43.9158C43.942 5.64666 44.047 5.91224 44.2306 6.10241C44.4207 6.28603 44.6732 6.37784 44.988 6.37784C45.506 6.37784 45.8044 6.17455 45.8831 5.76797H47.5356C47.4569 6.35816 47.1946 6.81064 46.7487 7.12541C46.3093 7.43362 45.7028 7.58772 44.929 7.58772ZM45.8241 4.31218C45.7913 3.66953 45.4896 3.3482 44.9191 3.3482C44.3552 3.3482 44.0273 3.66953 43.9355 4.31218H45.8241Z" fill="white"/>
<path d="M24.9924 16.7732C24.3694 16.7732 23.8612 16.5568 23.4677 16.124C23.0415 15.6519 22.8283 14.9896 22.8283 14.1371V14.0584C22.8283 13.2124 23.0382 12.5436 23.4579 12.0517C23.8579 11.5993 24.3759 11.373 25.012 11.373C25.7334 11.373 26.2613 11.6616 26.5957 12.2386V9.24835H28.3564V16.6552H26.5957V15.8191C26.458 16.1076 26.2481 16.3404 25.9662 16.5175C25.6908 16.688 25.3661 16.7732 24.9924 16.7732ZM25.6121 15.4257C25.9399 15.4257 26.1924 15.3142 26.3695 15.0912C26.5531 14.8683 26.6449 14.5404 26.6449 14.1076V14.0289C26.6449 13.1436 26.3072 12.7009 25.6317 12.7009C24.9563 12.7009 24.6186 13.1469 24.6186 14.0387V14.1174C24.6186 14.5436 24.7038 14.8683 24.8743 15.0912C25.0514 15.3142 25.2973 15.4257 25.6121 15.4257Z" fill="white"/>
<path d="M31.3112 16.7732C30.4718 16.7732 29.8062 16.547 29.3144 16.0945C28.7832 15.6289 28.5177 14.9797 28.5177 14.1469V14.0682C28.5177 13.2616 28.7865 12.6059 29.3242 12.1009C29.8423 11.6157 30.5013 11.373 31.3014 11.373C32.0555 11.373 32.6686 11.5861 33.1408 12.0124C33.6589 12.4845 33.9179 13.1567 33.9179 14.0289V14.4912H30.2981C30.3243 14.8322 30.4292 15.0978 30.6128 15.2879C30.803 15.4716 31.0555 15.5634 31.3702 15.5634C31.8883 15.5634 32.1867 15.3601 32.2654 14.9535H33.9179C33.8392 15.5437 33.5769 15.9962 33.131 16.3109C32.6916 16.6191 32.085 16.7732 31.3112 16.7732ZM32.2063 13.4977C32.1735 12.8551 31.8719 12.5337 31.3014 12.5337C30.7374 12.5337 30.4095 12.8551 30.3177 13.4977H32.2063Z" fill="white"/>
<path d="M33.435 11.5107H35.3138L36.386 14.8256L37.4385 11.5107H39.1205L37.2418 16.6552H35.3236L33.435 11.5107Z" fill="white"/>
<path d="M42.7782 16.7732C41.9782 16.7732 41.3356 16.5503 40.8503 16.1044C40.3322 15.6388 40.0732 14.9863 40.0732 14.1469V14.0682C40.0732 13.242 40.3421 12.5796 40.8798 12.0813C41.3913 11.6091 42.0372 11.373 42.8176 11.373C43.5061 11.373 44.0701 11.5271 44.5095 11.8353C45.0144 12.2091 45.2898 12.76 45.3357 13.4879H43.6832C43.6045 12.9895 43.3291 12.7403 42.8569 12.7403C42.2012 12.7403 41.8733 13.1764 41.8733 14.0485V14.1272C41.8733 15.0322 42.211 15.4847 42.8864 15.4847C43.411 15.4847 43.7094 15.1994 43.7816 14.6289H45.3652C45.339 15.2912 45.1029 15.8158 44.657 16.2027C44.2176 16.5831 43.5914 16.7732 42.7782 16.7732Z" fill="white"/>
<path d="M45.5208 9.24835H47.2717V16.6552H45.5208V9.24835Z" fill="white"/>
<path d="M49.4432 16.7732C48.9252 16.7732 48.5153 16.6191 48.2136 16.3109C47.8792 15.9765 47.712 15.4945 47.712 14.865V11.5107H49.4727V14.5797C49.4727 15.1568 49.7154 15.4453 50.2006 15.4453C50.7842 15.4453 51.0761 15.1207 51.0761 14.4715V11.5107H52.8368V16.6552H51.0761V15.8585C50.7679 16.4683 50.2236 16.7732 49.4432 16.7732Z" fill="white"/>
<path d="M56.6224 16.7732C55.8552 16.7732 55.324 16.4683 55.0289 15.8585V16.6552H53.2682V9.24835H55.0289V12.278C55.3962 11.6747 55.9306 11.373 56.6323 11.373C57.2618 11.373 57.7733 11.596 58.1668 12.0419C58.593 12.5206 58.8061 13.1862 58.8061 14.0387V14.1174C58.8061 14.9699 58.593 15.6322 58.1668 16.1044C57.7733 16.5503 57.2585 16.7732 56.6224 16.7732ZM56.0028 15.4257C56.6782 15.4257 57.0159 14.9896 57.0159 14.1174V14.0387C57.0159 13.5928 56.9274 13.2583 56.7503 13.0354C56.5733 12.8124 56.3241 12.7009 56.0028 12.7009C55.6814 12.7009 55.429 12.8157 55.2453 13.0452C55.0683 13.2747 54.9798 13.6026 54.9798 14.0289V14.1076C54.9798 14.5404 55.0683 14.8683 55.2453 15.0912C55.4224 15.3142 55.6749 15.4257 56.0028 15.4257Z" fill="white"/>
<path d="M0.464844 19.9931H19.9931V39.5214H1.91138C1.11248 39.5214 0.464844 38.8738 0.464844 38.0749V19.9931Z" fill="white"/>
<path d="M0.464844 1.91138C0.464844 1.11248 1.11248 0.464844 1.91138 0.464844H18.5466C19.3455 0.464844 19.9931 1.11248 19.9931 1.91138V19.9931H0.464844V1.91138Z" fill="white"/>
<path d="M39.5214 19.9931H57.6032C58.4021 19.9931 59.0497 20.6408 59.0497 21.4397V38.0749C59.0497 38.8738 58.4021 39.5214 57.6032 39.5214H39.5214V19.9931Z" fill="white"/>
<path d="M19.9931 19.9931H39.5214V39.5214H19.9931V19.9931Z" fill="white"/>
<path fill-rule="evenodd" clip-rule="evenodd" d="M0 19.5312H20.4685V39.9998H1.91667C0.858121 39.9998 0 39.1417 0 38.0831V19.5312ZM0.940251 20.4715V38.0831C0.940251 38.6224 1.37741 39.0595 1.91667 39.0595H19.5283V20.4715H0.940251Z" fill="black"/>
<path fill-rule="evenodd" clip-rule="evenodd" d="M0 1.91667C0 0.858121 0.85812 0 1.91666 0H18.5519C19.6104 0 20.4685 0.85812 20.4685 1.91666V20.4685H0V1.91667ZM1.91666 0.940251C1.37741 0.940251 0.940251 1.37741 0.940251 1.91667V19.5283H19.5283V1.91666C19.5283 1.37741 19.0911 0.940251 18.5519 0.940251H1.91666Z" fill="black"/>
<path fill-rule="evenodd" clip-rule="evenodd" d="M39.0566 19.5312H57.6085C58.6671 19.5312 59.5252 20.3894 59.5252 21.4479V38.0831C59.5252 39.1417 58.6671 39.9998 57.6085 39.9998H39.0566V19.5312ZM39.9969 20.4715V39.0595H57.6085C58.1478 39.0595 58.5849 38.6224 58.5849 38.0831V21.4479C58.5849 20.9087 58.1478 20.4715 57.6085 20.4715H39.9969Z" fill="black"/>
<path fill-rule="evenodd" clip-rule="evenodd" d="M19.5312 19.5312H39.9998V39.9998H19.5312V19.5312ZM20.4715 20.4715V39.0595H39.0595V20.4715H20.4715Z" fill="black"/>
</svg>
