<svg width="82" height="41" viewBox="0 0 82 41" fill="none" xmlns="http://www.w3.org/2000/svg">
<path d="M0 0H4.68174V8.21265C5.55357 6.50386 7.05312 5.64947 9.18039 5.64947C10.5404 5.64947 11.6215 6.08538 12.4236 6.95721C13.2431 7.82904 13.6529 9.11064 13.6529 10.802V19.6947H8.97115V11.7436C8.97115 10.2091 8.31728 9.44193 7.00953 9.44193C6.29463 9.44193 5.72793 9.65989 5.30946 10.0958C4.89098 10.5317 4.68174 11.1769 4.68174 12.0313V19.6947H0V0Z" fill="#FAFAFA" fill-opacity="0.88"/>
<path d="M19.5858 20.0085C18.2606 20.0085 17.1882 19.6859 16.3687 19.0408C15.4271 18.3259 14.9563 17.2797 14.9563 15.9022C14.9563 12.9205 17.38 11.4297 22.2274 11.4297H23.5352V11.1158C23.5352 10.3835 23.4044 9.84297 23.1428 9.49424C22.8987 9.12807 22.4279 8.94499 21.7305 8.94499C20.632 8.94499 20.013 9.48552 19.8735 10.5666H15.4794C15.5841 8.96242 16.2379 7.72442 17.4411 6.85259C18.557 6.05051 20.0827 5.64947 22.0182 5.64947C23.9711 5.64947 25.4706 6.05923 26.5168 6.87875C27.6328 7.75058 28.1908 9.06704 28.1908 10.8281V19.6947H23.6398V18.0992C22.8203 19.3721 21.4689 20.0085 19.5858 20.0085ZM21.2074 16.8438C21.8874 16.8438 22.4454 16.6694 22.8813 16.3207C23.3172 15.9545 23.5352 15.4837 23.5352 14.9083V14.0714H22.3059C21.3469 14.0714 20.6494 14.1847 20.2135 14.4114C19.795 14.6206 19.5858 15.0042 19.5858 15.5622C19.5858 16.4166 20.1263 16.8438 21.2074 16.8438Z" fill="#FAFAFA" fill-opacity="0.88"/>
<path d="M36.7418 20.0085C34.6145 20.0085 32.9057 19.4157 31.6154 18.23C30.2379 16.992 29.5492 15.257 29.5492 13.0252V12.8159C29.5492 10.6189 30.2641 8.8578 31.6939 7.53262C33.0539 6.27718 34.7714 5.64947 36.8464 5.64947C38.6772 5.64947 40.1768 6.05923 41.3451 6.87875C42.6877 7.87263 43.42 9.33731 43.5421 11.2728H39.148C38.9388 9.94759 38.2065 9.285 36.951 9.285C35.2074 9.285 34.3355 10.4445 34.3355 12.7636V12.9728C34.3355 15.3791 35.2335 16.5822 37.0295 16.5822C38.4244 16.5822 39.2178 15.8237 39.4096 14.3067H43.6205C43.5508 16.0678 42.9231 17.4628 41.7374 18.4915C40.5691 19.5029 38.9039 20.0085 36.7418 20.0085Z" fill="#FAFAFA" fill-opacity="0.88"/>
<path d="M44.9497 0H49.6315V11.4297L53.3193 6.01564H58.1841L53.7117 12.162L58.5503 19.6947H53.3193L49.6315 13.7052V19.6947H44.9497V0Z" fill="#FAFAFA" fill-opacity="0.88"/>
<path d="M13.8733 40.7781C11.746 40.7781 10.0372 40.1852 8.74691 38.9995C7.36941 37.7615 6.68066 36.0266 6.68066 33.7947V33.5854C6.68066 31.3884 7.39557 29.6273 8.82537 28.3022C10.1854 27.0467 11.9029 26.419 13.9779 26.419C15.8087 26.419 17.3083 26.8288 18.4765 27.6483C19.8192 28.6422 20.5515 30.1068 20.6736 32.0423H16.2795C16.0703 30.7171 15.338 30.0545 14.0825 30.0545C12.3389 30.0545 11.467 31.2141 11.467 33.5331V33.7424C11.467 36.1486 12.365 37.3518 14.161 37.3518C15.5559 37.3518 16.3493 36.5933 16.5411 35.0763H20.752C20.6823 36.8374 20.0546 38.2323 18.8689 39.2611C17.7006 40.2724 16.0354 40.7781 13.8733 40.7781Z" fill="#FAFAFA" fill-opacity="0.88"/>
<path d="M22.212 20.7695H26.8676V40.4642H22.212V20.7695Z" fill="#FAFAFA" fill-opacity="0.88"/>
<path d="M33.6877 40.7781C32.3102 40.7781 31.2204 40.3683 30.4183 39.5488C29.5291 38.6595 29.0844 37.3779 29.0844 35.704V26.7852H33.7662V34.9455C33.7662 36.4799 34.4113 37.2471 35.7016 37.2471C37.2535 37.2471 38.0294 36.384 38.0294 34.6578V26.7852H42.7112V40.4642H38.0294V38.3456C37.2099 39.9673 35.7627 40.7781 33.6877 40.7781Z" fill="#FAFAFA" fill-opacity="0.88"/>
<path d="M53.8233 40.7781C51.7832 40.7781 50.3709 39.9673 49.5862 38.3456V40.4642H44.9045V20.7695H49.5862V28.8253C50.5627 27.2211 51.9838 26.419 53.8495 26.419C55.5234 26.419 56.8835 27.0118 57.9297 28.1975C59.063 29.4704 59.6297 31.2402 59.6297 33.507V33.7162C59.6297 35.983 59.063 37.7441 57.9297 38.9995C56.8835 40.1852 55.5147 40.7781 53.8233 40.7781ZM52.1756 37.1948C53.9715 37.1948 54.8695 36.0353 54.8695 33.7162V33.507C54.8695 32.3213 54.6341 31.432 54.1633 30.8392C53.6926 30.2463 53.03 29.9499 52.1756 29.9499C51.3212 29.9499 50.6499 30.2551 50.1616 30.8653C49.6908 31.4756 49.4555 32.3474 49.4555 33.4808V33.6901C49.4555 34.8409 49.6908 35.7127 50.1616 36.3056C50.6324 36.8984 51.3037 37.1948 52.1756 37.1948Z" fill="#FAFAFA" fill-opacity="0.88"/>
<path d="M81.9995 21.6926L65.3955 12.3401V10.1714L81.9995 0.886719V6.37621L72.376 11.2558L81.9995 16.2031V21.6926Z" fill="#FAFAFA" fill-opacity="0.88"/>
<path d="M65.3955 40.466L81.9995 31.1135V28.9448L65.3955 19.6602V25.1496L75.0191 30.0292L65.3955 34.9765V40.466Z" fill="#FAFAFA" fill-opacity="0.88"/>
</svg>
