<svg width="663" height="74" viewBox="0 0 663 74" fill="none" xmlns="http://www.w3.org/2000/svg">
<path d="M0.00012207 2.04843H10.7521V91.6484H0.00012207V2.04843ZM93.8981 2.04843V12.0324H65.9941V91.6484H55.2421V12.0324H27.3381V2.04843H93.8981ZM158.726 58.1124H189.702L174.214 13.5684L158.726 58.1124ZM180.486 2.04843L213.382 91.6484H201.35L193.03 67.5844H155.398L147.078 91.6484H135.302L168.198 2.04843H180.486ZM288.148 2.04843V12.0324H260.244V91.6484H249.492V12.0324H221.588V2.04843H288.148ZM382.544 67.0724L412.24 2.04843H426.832V91.6484H416.592V16.2564L386 81.7924H378.832L348.24 16.2564V91.6484H338V2.04843H352.848L382.544 67.0724ZM450.375 2.04843H461.127V91.6484H450.375V2.04843ZM515.089 93.6964C506.385 93.6964 498.961 91.8191 492.817 88.0644C486.673 84.2244 481.894 78.5498 478.481 71.0404L488.209 65.9204C491.025 71.9791 494.609 76.4591 498.961 79.3604C503.398 82.1764 508.86 83.5844 515.345 83.5844C521.916 83.5844 527.036 82.2618 530.705 79.6164C534.46 76.8858 536.337 73.1311 536.337 68.3524C536.337 65.2804 535.569 62.7631 534.033 60.8004C532.497 58.7524 530.449 57.0458 527.889 55.6804C525.414 54.3151 522.556 53.1631 519.313 52.2244C516.156 51.2858 512.87 50.3471 509.457 49.4084C506.129 48.4698 502.844 47.4458 499.601 46.3364C496.444 45.1418 493.585 43.6484 491.025 41.8564C488.55 40.0644 486.545 37.8458 485.009 35.2004C483.473 32.4698 482.705 29.1418 482.705 25.2164C482.705 21.4618 483.43 18.0484 484.881 14.9764C486.332 11.9044 488.38 9.2591 491.025 7.04044C493.67 4.82177 496.87 3.1151 500.625 1.92043C504.465 0.640434 508.689 0.000434875 513.297 0.000434875C521.318 0.000434875 528.188 1.79243 533.905 5.37643C539.708 8.8751 544.102 13.8671 547.089 20.3524L537.745 25.3444C535.441 20.3951 532.198 16.5978 528.017 13.9524C523.921 11.3071 519.014 9.98444 513.297 9.98444C507.238 9.98444 502.374 11.3498 498.705 14.0804C495.121 16.7258 493.329 20.2244 493.329 24.5764C493.329 28.2458 494.652 31.1044 497.297 33.1524C499.942 35.1151 503.27 36.7791 507.281 38.1444C511.292 39.4244 515.601 40.6191 520.209 41.7284C524.817 42.8378 529.126 44.3738 533.137 46.3364C537.148 48.2991 540.476 50.9018 543.121 54.1444C545.766 57.3871 547.089 61.8244 547.089 67.4564C547.089 71.5524 546.321 75.2218 544.785 78.4644C543.334 81.7071 541.201 84.4804 538.385 86.7844C535.654 89.0031 532.284 90.7098 528.273 91.9044C524.348 93.0991 519.953 93.6964 515.089 93.6964ZM565.75 2.04843H576.502V91.6484H565.75V2.04843ZM630.464 93.6964C621.76 93.6964 614.336 91.8191 608.192 88.0644C602.048 84.2244 597.269 78.5498 593.856 71.0404L603.584 65.9204C606.4 71.9791 609.984 76.4591 614.336 79.3604C618.773 82.1764 624.235 83.5844 630.72 83.5844C637.291 83.5844 642.411 82.2618 646.08 79.6164C649.835 76.8858 651.712 73.1311 651.712 68.3524C651.712 65.2804 650.944 62.7631 649.408 60.8004C647.872 58.7524 645.824 57.0458 643.264 55.6804C640.789 54.3151 637.931 53.1631 634.688 52.2244C631.531 51.2858 628.245 50.3471 624.832 49.4084C621.504 48.4698 618.219 47.4458 614.976 46.3364C611.819 45.1418 608.96 43.6484 606.4 41.8564C603.925 40.0644 601.92 37.8458 600.384 35.2004C598.848 32.4698 598.08 29.1418 598.08 25.2164C598.08 21.4618 598.805 18.0484 600.256 14.9764C601.707 11.9044 603.755 9.2591 606.4 7.04044C609.045 4.82177 612.245 3.1151 616 1.92043C619.84 0.640434 624.064 0.000434875 628.672 0.000434875C636.693 0.000434875 643.563 1.79243 649.28 5.37643C655.083 8.8751 659.477 13.8671 662.464 20.3524L653.12 25.3444C650.816 20.3951 647.573 16.5978 643.392 13.9524C639.296 11.3071 634.389 9.98444 628.672 9.98444C622.613 9.98444 617.749 11.3498 614.08 14.0804C610.496 16.7258 608.704 20.2244 608.704 24.5764C608.704 28.2458 610.027 31.1044 612.672 33.1524C615.317 35.1151 618.645 36.7791 622.656 38.1444C626.667 39.4244 630.976 40.6191 635.584 41.7284C640.192 42.8378 644.501 44.3738 648.512 46.3364C652.523 48.2991 655.851 50.9018 658.496 54.1444C661.141 57.3871 662.464 61.8244 662.464 67.4564C662.464 71.5524 661.696 75.2218 660.16 78.4644C658.709 81.7071 656.576 84.4804 653.76 86.7844C651.029 89.0031 647.659 90.7098 643.648 91.9044C639.723 93.0991 635.328 93.6964 630.464 93.6964Z" fill="#FAFAFA"/>
</svg>
