<svg width="43" height="42" viewBox="0 0 43 42" fill="none" xmlns="http://www.w3.org/2000/svg">
<mask id="path-1-outside-1_386_11717" maskUnits="userSpaceOnUse" x="0" y="0" width="43" height="42" fill="black">
<rect fill="white" width="43" height="42"/>
<path d="M16.4277 1C18.5702 1 20.2509 2.83773 20.0605 4.97168L19.4668 11.625H22.6162L22.0225 4.97168C21.8321 2.83774 23.5128 1 25.6553 1H26.8584C29.0007 1.00018 30.6816 2.83786 30.4912 4.97168L29.8965 11.625H37.9453V27.3838H41.083V41H1V27.3838H4.1377V11.625H12.1865L11.5918 4.97168C11.4015 2.83791 13.0824 1.00026 15.2246 1H16.4277ZM15.2246 2.44922C13.9334 2.44948 12.9205 3.5567 13.0352 4.84277L13.7676 13.042C13.7685 13.0527 13.7694 13.0636 13.7705 13.0742H5.58691V28.833H2.44922V39.5508H39.6338V28.833H36.4961V13.0742H28.3125C28.3136 13.0636 28.3145 13.0527 28.3154 13.042L29.0479 4.84277C29.1625 3.55665 28.1496 2.4494 26.8584 2.44922H25.6553C24.3639 2.44922 23.3502 3.55657 23.4648 4.84277L24.1973 13.042C24.1977 13.0465 24.1988 13.0512 24.1992 13.0557C24.1998 13.0618 24.2005 13.0681 24.2012 13.0742H17.8828L17.8838 13.0645L17.8857 13.042L18.6182 4.84277C18.7328 3.55656 17.7191 2.44922 16.4277 2.44922H15.2246Z"/>
</mask>
<path d="M16.4277 1C18.5702 1 20.2509 2.83773 20.0605 4.97168L19.4668 11.625H22.6162L22.0225 4.97168C21.8321 2.83774 23.5128 1 25.6553 1H26.8584C29.0007 1.00018 30.6816 2.83786 30.4912 4.97168L29.8965 11.625H37.9453V27.3838H41.083V41H1V27.3838H4.1377V11.625H12.1865L11.5918 4.97168C11.4015 2.83791 13.0824 1.00026 15.2246 1H16.4277ZM15.2246 2.44922C13.9334 2.44948 12.9205 3.5567 13.0352 4.84277L13.7676 13.042C13.7685 13.0527 13.7694 13.0636 13.7705 13.0742H5.58691V28.833H2.44922V39.5508H39.6338V28.833H36.4961V13.0742H28.3125C28.3136 13.0636 28.3145 13.0527 28.3154 13.042L29.0479 4.84277C29.1625 3.55665 28.1496 2.4494 26.8584 2.44922H25.6553C24.3639 2.44922 23.3502 3.55657 23.4648 4.84277L24.1973 13.042C24.1977 13.0465 24.1988 13.0512 24.1992 13.0557C24.1998 13.0618 24.2005 13.0681 24.2012 13.0742H17.8828L17.8838 13.0645L17.8857 13.042L18.6182 4.84277C18.7328 3.55656 17.7191 2.44922 16.4277 2.44922H15.2246Z" fill="black"/>
<path d="M20.0605 4.97168L21.0566 5.06057L21.0566 5.06055L20.0605 4.97168ZM19.4668 11.625L18.4708 11.5361L18.3736 12.625H19.4668V11.625ZM22.6162 11.625V12.625H23.7094L23.6123 11.5361L22.6162 11.625ZM22.0225 4.97168L21.0264 5.06054L21.0264 5.06057L22.0225 4.97168ZM25.6553 1V0V0V1ZM26.8584 1L26.8585 0H26.8584V1ZM30.4912 4.97168L31.4872 5.06071L31.4873 5.06054L30.4912 4.97168ZM29.8965 11.625L28.9005 11.536L28.8031 12.625H29.8965V11.625ZM37.9453 11.625H38.9453V10.625H37.9453V11.625ZM37.9453 27.3838H36.9453V28.3838H37.9453V27.3838ZM41.083 27.3838H42.083V26.3838H41.083V27.3838ZM41.083 41V42H42.083V41H41.083ZM1 41H0V42H1V41ZM1 27.3838V26.3838H0V27.3838H1ZM4.1377 27.3838V28.3838H5.1377V27.3838H4.1377ZM4.1377 11.625V10.625H3.1377V11.625H4.1377ZM12.1865 11.625V12.625H13.2799L13.1826 11.536L12.1865 11.625ZM11.5918 4.97168L10.5958 5.06053L10.5958 5.06071L11.5918 4.97168ZM15.2246 1V0H15.2245L15.2246 1ZM15.2246 2.44922V1.44922L15.2244 1.44922L15.2246 2.44922ZM13.0352 4.84277L12.0391 4.93156L12.0391 4.93175L13.0352 4.84277ZM13.7676 13.042L12.7715 13.131L12.7716 13.131L13.7676 13.042ZM13.7705 13.0742V14.0742H14.8808L14.7651 12.97L13.7705 13.0742ZM5.58691 13.0742V12.0742H4.58691V13.0742H5.58691ZM5.58691 28.833V29.833H6.58691V28.833H5.58691ZM2.44922 28.833V27.833H1.44922V28.833H2.44922ZM2.44922 39.5508H1.44922V40.5508H2.44922V39.5508ZM39.6338 39.5508V40.5508H40.6338V39.5508H39.6338ZM39.6338 28.833H40.6338V27.833H39.6338V28.833ZM36.4961 28.833H35.4961V29.833H36.4961V28.833ZM36.4961 13.0742H37.4961V12.0742H36.4961V13.0742ZM28.3125 13.0742L27.3179 12.97L27.2022 14.0742H28.3125V13.0742ZM28.3154 13.042L27.3194 12.953V12.953L28.3154 13.042ZM29.0479 4.84277L30.0439 4.93175L30.0439 4.93156L29.0479 4.84277ZM26.8584 2.44922L26.8585 1.44922H26.8584V2.44922ZM25.6553 2.44922V1.44922V1.44922V2.44922ZM23.4648 4.84277L22.4688 4.93154L22.4688 4.93175L23.4648 4.84277ZM24.1973 13.042L25.1933 12.9531L25.1933 12.953L24.1973 13.042ZM24.1992 13.0557L23.2038 13.1511L23.2038 13.1513L24.1992 13.0557ZM24.2012 13.0742V14.0742H25.3116L25.1957 12.9699L24.2012 13.0742ZM17.8828 13.0742L16.8878 12.9747L16.7778 14.0742H17.8828V13.0742ZM17.8838 13.0645L18.8789 13.164L18.88 13.1511L17.8838 13.0645ZM17.8857 13.042L16.8897 12.953L16.8895 12.9554L17.8857 13.042ZM18.6182 4.84277L19.6142 4.93175L19.6142 4.93154L18.6182 4.84277ZM16.4277 1V2C17.9827 2 19.2027 3.33379 19.0645 4.88281L20.0605 4.97168L21.0566 5.06055C21.2992 2.34168 19.1577 0 16.4277 0V1ZM20.0605 4.97168L19.0645 4.88279L18.4708 11.5361L19.4668 11.625L20.4628 11.7139L21.0566 5.06057L20.0605 4.97168ZM19.4668 11.625V12.625H22.6162V11.625V10.625H19.4668V11.625ZM22.6162 11.625L23.6123 11.5361L23.0185 4.88279L22.0225 4.97168L21.0264 5.06057L21.6202 11.7139L22.6162 11.625ZM22.0225 4.97168L23.0185 4.88282C22.8803 3.33379 24.1003 2 25.6553 2V1V0C22.9253 1.78814e-07 20.7838 2.34169 21.0264 5.06054L22.0225 4.97168ZM25.6553 1V2H26.8584V1V0H25.6553V1ZM26.8584 1L26.8583 2C28.4133 2.00013 29.6333 3.33399 29.4952 4.88282L30.4912 4.97168L31.4873 5.06054C31.7298 2.34172 29.5882 0.000233233 26.8585 0L26.8584 1ZM30.4912 4.97168L29.4952 4.88265L28.9005 11.536L29.8965 11.625L30.8925 11.714L31.4872 5.06071L30.4912 4.97168ZM29.8965 11.625V12.625H37.9453V11.625V10.625H29.8965V11.625ZM37.9453 11.625H36.9453V27.3838H37.9453H38.9453V11.625H37.9453ZM37.9453 27.3838V28.3838H41.083V27.3838V26.3838H37.9453V27.3838ZM41.083 27.3838H40.083V41H41.083H42.083V27.3838H41.083ZM41.083 41V40H1V41V42H41.083V41ZM1 41H2V27.3838H1H0V41H1ZM1 27.3838V28.3838H4.1377V27.3838V26.3838H1V27.3838ZM4.1377 27.3838H5.1377V11.625H4.1377H3.1377V27.3838H4.1377ZM4.1377 11.625V12.625H12.1865V11.625V10.625H4.1377V11.625ZM12.1865 11.625L13.1826 11.536L12.5878 4.88265L11.5918 4.97168L10.5958 5.06071L11.1905 11.714L12.1865 11.625ZM11.5918 4.97168L12.5878 4.88283C12.4497 3.33408 13.6697 2.00019 15.2247 2L15.2246 1L15.2245 0C12.495 0.000334918 10.3532 2.34174 10.5958 5.06053L11.5918 4.97168ZM15.2246 1V2H16.4277V1V0H15.2246V1ZM15.2246 2.44922L15.2244 1.44922C13.3461 1.4496 11.8723 3.06043 12.0391 4.93156L13.0352 4.84277L14.0312 4.75399C13.9687 4.05298 14.5208 3.44936 15.2248 3.44922L15.2246 2.44922ZM13.0352 4.84277L12.0391 4.93175L12.7715 13.131L13.7676 13.042L14.7636 12.953L14.0312 4.7538L13.0352 4.84277ZM13.7676 13.042L12.7716 13.131C12.7721 13.1373 12.7717 13.1332 12.7728 13.1456C12.7735 13.1531 12.7745 13.1649 12.776 13.1785L13.7705 13.0742L14.7651 12.97C14.7654 12.9729 14.7654 12.9739 14.7651 12.9706C14.765 12.9689 14.7649 12.9673 14.7646 12.9641C14.7643 12.9613 14.764 12.9573 14.7636 12.9529L13.7676 13.042ZM13.7705 13.0742V12.0742H5.58691V13.0742V14.0742H13.7705V13.0742ZM5.58691 13.0742H4.58691V28.833H5.58691H6.58691V13.0742H5.58691ZM5.58691 28.833V27.833H2.44922V28.833V29.833H5.58691V28.833ZM2.44922 28.833H1.44922V39.5508H2.44922H3.44922V28.833H2.44922ZM2.44922 39.5508V40.5508H39.6338V39.5508V38.5508H2.44922V39.5508ZM39.6338 39.5508H40.6338V28.833H39.6338H38.6338V39.5508H39.6338ZM39.6338 28.833V27.833H36.4961V28.833V29.833H39.6338V28.833ZM36.4961 28.833H37.4961V13.0742H36.4961H35.4961V28.833H36.4961ZM36.4961 13.0742V12.0742H28.3125V13.0742V14.0742H36.4961V13.0742ZM28.3125 13.0742L29.3071 13.1785C29.3085 13.1649 29.3095 13.1531 29.3102 13.1456C29.3113 13.133 29.3109 13.1376 29.3115 13.131L28.3154 13.042L27.3194 12.953C27.319 12.9573 27.3187 12.9613 27.3184 12.9641C27.3182 12.9673 27.318 12.9689 27.3179 12.9706C27.3176 12.9739 27.3176 12.9729 27.3179 12.97L28.3125 13.0742ZM28.3154 13.042L29.3115 13.131L30.0439 4.93175L29.0479 4.84277L28.0518 4.7538L27.3194 12.953L28.3154 13.042ZM29.0479 4.84277L30.0439 4.93156C30.2107 3.06044 28.737 1.44949 26.8585 1.44922L26.8584 2.44922L26.8583 3.44922C27.5623 3.44932 28.1143 4.05286 28.0518 4.75398L29.0479 4.84277ZM26.8584 2.44922V1.44922H25.6553V2.44922V3.44922H26.8584V2.44922ZM25.6553 2.44922V1.44922C23.777 1.44922 22.302 3.05993 22.4688 4.93154L23.4648 4.84277L24.4609 4.75401C24.3984 4.05321 24.9508 3.44922 25.6553 3.44922V2.44922ZM23.4648 4.84277L22.4688 4.93175L23.2012 13.131L24.1973 13.042L25.1933 12.953L24.4609 4.7538L23.4648 4.84277ZM24.1973 13.042L23.2012 13.1309C23.2036 13.157 23.2064 13.1782 23.2084 13.1912C23.2094 13.198 23.2102 13.2035 23.2108 13.2072C23.2114 13.2107 23.2119 13.2137 23.212 13.2142C23.2122 13.2155 23.212 13.2139 23.2117 13.2122C23.2114 13.2103 23.2107 13.2063 23.21 13.2013C23.2085 13.1917 23.206 13.1738 23.2038 13.1511L24.1992 13.0557L25.1947 12.9602C25.1923 12.9353 25.1894 12.9151 25.1876 12.9032C25.1867 12.897 25.1859 12.892 25.1854 12.8889C25.1851 12.8872 25.1849 12.8859 25.1847 12.8851C25.1846 12.8843 25.1845 12.8835 25.1845 12.8835C25.1844 12.8829 25.1847 12.8847 25.185 12.887C25.1855 12.8896 25.1862 12.894 25.187 12.8996C25.1886 12.9103 25.1912 12.9292 25.1933 12.9531L24.1973 13.042ZM24.1992 13.0557L23.2038 13.1513C23.2047 13.1602 23.2055 13.1678 23.2059 13.1719C23.2061 13.1736 23.2064 13.1765 23.2065 13.177C23.2066 13.1782 23.2066 13.1786 23.2066 13.1785L24.2012 13.0742L25.1957 12.9699C25.1954 12.9668 25.1951 12.9641 25.1949 12.9622C25.1946 12.9596 25.1946 12.9594 25.1944 12.9579C25.1942 12.9559 25.1944 12.9573 25.1946 12.96L24.1992 13.0557ZM24.2012 13.0742V12.0742H17.8828V13.0742V14.0742H24.2012V13.0742ZM17.8828 13.0742L18.8778 13.1737L18.8788 13.164L17.8838 13.0645L16.8888 12.9649L16.8878 12.9747L17.8828 13.0742ZM17.8838 13.0645L18.88 13.1511L18.882 13.1286L17.8857 13.042L16.8895 12.9554L16.8875 12.9778L17.8838 13.0645ZM17.8857 13.042L18.8818 13.131L19.6142 4.93175L18.6182 4.84277L17.6221 4.7538L16.8897 12.953L17.8857 13.042ZM18.6182 4.84277L19.6142 4.93154C19.781 3.05992 18.306 1.44922 16.4277 1.44922V2.44922V3.44922C17.1322 3.44922 17.6846 4.05321 17.6221 4.754L18.6182 4.84277ZM16.4277 2.44922V1.44922H15.2246V2.44922V3.44922H16.4277V2.44922Z" fill="white" mask="url(#path-1-outside-1_386_11717)"/>
<path fill-rule="evenodd" clip-rule="evenodd" d="M17.8837 13.0646C17.8834 13.0679 17.883 13.0711 17.8827 13.0744H24.2011C24.2 13.0637 24.199 13.053 24.198 13.0422L23.4656 4.84354C23.3507 3.55714 24.3641 2.44922 25.6556 2.44922H26.8584C28.1499 2.44922 29.1633 3.55714 29.0484 4.84354L28.316 13.0422C28.315 13.053 28.314 13.0637 28.3129 13.0744H36.4967V28.8329H39.6345V39.5515H2.44922V28.8329H5.58699V13.0744H13.7709C13.7698 13.0637 13.7687 13.053 13.7678 13.0422L13.0354 4.84354C12.9205 3.55714 13.9339 2.44922 15.2254 2.44922H16.4282C17.7197 2.44922 18.7331 3.55714 18.6182 4.84354L17.8858 13.0422C17.8851 13.0497 17.8844 13.0572 17.8837 13.0646Z" fill="white"/>
<path d="M4.5625 30.7266H37.4393V37.5759H4.5625V30.7266Z" fill="black"/>
<path d="M15.8027 29.8457H20.1679V32.7518H15.8027V29.8457Z" fill="white"/>
<path d="M21.9141 29.8457H26.2792V32.7518H21.9141V29.8457Z" fill="white"/>
<path d="M11.4004 19.271C11.4004 18.2497 12.2283 17.4219 13.2495 17.4219H17.5031C18.5243 17.4219 19.3522 18.2497 19.3522 19.271V26.7086H11.4004V19.271Z" fill="black"/>
<path d="M16.0195 21.0547H17.9514V25.4014H16.0195V21.0547Z" fill="white"/>
<path d="M22.7324 19.271C22.7324 18.2497 23.5603 17.4219 24.5815 17.4219H28.8351C29.8563 17.4219 30.6842 18.2497 30.6842 19.271V26.7086H22.7324V19.271Z" fill="black"/>
<path d="M27.3008 21.0547H29.2326V25.4014H27.3008V21.0547Z" fill="white"/>
</svg>
