<svg width="79" height="82" viewBox="0 0 79 82" fill="none" xmlns="http://www.w3.org/2000/svg">
<path d="M38.0118 0.938894C38.2676 -0.313487 40.057 -0.313494 40.3128 0.938887L41.8678 8.55454C45.6642 27.1467 59.6467 41.994 77.9779 46.898C78.9059 47.1462 78.9059 48.4631 77.9779 48.7114C59.6467 53.6154 45.6642 68.4627 41.8678 87.0548L40.3128 94.6705C40.057 95.9229 38.2676 95.9229 38.0118 94.6705L36.3912 86.7337C32.6331 68.3288 18.8195 53.6151 0.688142 48.7042C-0.229555 48.4556 -0.229554 47.1538 0.688144 46.9052C18.8195 41.9942 32.6331 27.2806 36.3912 8.87568L38.0118 0.938894Z" fill="#FAFAFA" fill-opacity="0.88"/>
</svg>
