<svg width="40" height="40" viewBox="0 0 40 40" fill="none" xmlns="http://www.w3.org/2000/svg">
<path d="M20 0.5C30.7696 0.5 39.5 9.23045 39.5 20C39.5 30.7696 30.7696 39.5 20 39.5C9.23045 39.5 0.5 30.7696 0.5 20C0.5 9.23045 9.23045 0.5 20 0.5Z" stroke="#FAFAFA" stroke-opacity="0.09"/>
<path d="M24.2445 13.7235C22.5305 14.4095 18.8493 15.9465 16.0641 17.1387C11.522 19.083 11 19.3694 11 19.9164C11 20.4455 11.2407 20.6024 12.8179 21.1017C15.7885 22.042 15.7241 22.0623 20.9983 18.5282C22.7837 17.3321 24.3029 16.4131 24.3743 16.4866C24.4457 16.56 23.1867 17.8504 21.5766 19.3542C19.5287 21.2669 18.6511 22.2603 18.655 22.661C18.6597 23.1043 19.3604 23.6973 21.7532 25.2828C25.3004 27.6331 25.8842 27.8589 26.5456 27.1359C27.0313 26.6053 28.1952 20.84 28.8182 15.8799C29.3181 11.8997 29.0803 11.7877 24.2445 13.7235Z" fill="#FAFAFA"/>
</svg>
