<svg width="40" height="40" viewBox="0 0 40 40" fill="none" xmlns="http://www.w3.org/2000/svg">
<path d="M20 0.5C30.7696 0.5 39.5 9.23045 39.5 20C39.5 30.7696 30.7696 39.5 20 39.5C9.23045 39.5 0.5 30.7696 0.5 20C0.5 9.23045 9.23045 0.5 20 0.5Z" stroke="#FAFAFA" stroke-opacity="0.09"/>
<path fill-rule="evenodd" clip-rule="evenodd" d="M20.1948 17.1911C20.1948 24.999 20.1001 25.5656 18.6891 26.1984C17.4517 26.7533 16.375 26.5954 15.4958 25.7303C13.7326 23.9944 14.9359 21.105 17.422 21.105H18.5438V19.3444V17.5839L17.2368 17.5866C16.4369 17.5882 15.3756 17.8431 14.5017 18.2437C10.0892 20.2659 9.77467 26.6699 13.9692 29.0897C16.4176 30.5019 19.4791 30.2528 21.5965 28.4689C23.4874 26.8755 23.759 25.96 23.7659 21.1502C23.7692 18.8658 23.8649 17.0441 23.9783 17.1015C25.3205 17.7816 26.5442 18.1857 27.6553 18.3152L29 18.472V16.6735C29 14.9284 28.9794 14.8754 28.3011 14.8754C27.3325 14.8754 25.5924 13.9539 24.8819 13.065C24.5558 12.6568 24.147 11.8004 23.9733 11.1614L23.6577 10H21.9264H20.1948V17.1911Z" fill="#FAFAFA"/>
<path d="M20.1948 17.1911C20.1948 24.999 20.1001 25.5656 18.6891 26.1984C17.4517 26.7533 16.375 26.5954 15.4958 25.7303C13.7326 23.9944 14.9359 21.105 17.422 21.105H18.5438V19.3444V17.5839L17.2368 17.5866C16.4369 17.5882 15.3756 17.8431 14.5017 18.2437C10.0892 20.2659 9.77467 26.6699 13.9692 29.0897C16.4176 30.5019 19.4791 30.2528 21.5965 28.4689C23.4874 26.8755 23.759 25.96 23.7659 21.1502C23.7692 18.8658 23.8649 17.0441 23.9783 17.1015C25.3205 17.7816 26.5442 18.1857 27.6553 18.3152L29 18.472V16.6735C29 14.9284 28.9794 14.8754 28.3011 14.8754C27.3325 14.8754 25.5924 13.9539 24.8819 13.065C24.5558 12.6568 24.147 11.8004 23.9733 11.1614L23.6577 10H21.9264H20.1948V17.1911Z" fill="#FAFAFA"/>
</svg>
