<svg width="40" height="40" viewBox="0 0 40 40" fill="none" xmlns="http://www.w3.org/2000/svg">
<path d="M20 0.5C30.7696 0.5 39.5 9.23045 39.5 20C39.5 30.7696 30.7696 39.5 20 39.5C9.23045 39.5 0.5 30.7696 0.5 20C0.5 9.23045 9.23045 0.5 20 0.5Z" stroke="#FAFAFA" stroke-opacity="0.09"/>
<path fill-rule="evenodd" clip-rule="evenodd" d="M16.4756 13.9766C16.073 14.4309 16.0776 14.4614 16.5739 14.6222C16.8604 14.715 17.1984 15.0695 17.325 15.41C17.6653 16.324 17.6059 18.8264 17.2314 19.3494C16.9293 19.7716 16.854 19.7366 16.1231 18.8357C15.6917 18.3039 14.9217 17.0262 14.4115 15.9964L13.4843 14.1241L11.2423 14.0522L9 13.9806V14.6062C9 15.3274 10.8778 19.1689 12.3034 21.3638C14.4272 24.6339 16.6115 26.1592 19.529 26.4089C21.3931 26.5687 21.9556 26.3205 21.9556 25.3394C21.9556 24.603 22.4457 23.4858 22.7686 23.4858C22.9035 23.4858 23.7055 24.1641 24.5508 24.9929L26.0876 26.5L28.4827 26.4284L30.8778 26.3567L30.9533 25.5616C31.0186 24.8728 30.7976 24.5178 29.3033 22.9111C28.3541 21.8911 27.5778 20.9107 27.5778 20.733C27.5778 20.5552 28.1681 19.6088 28.8895 18.6299C30.4696 16.486 31 15.4819 31 14.6359V13.9993H28.4544H25.9085L24.9128 16.0589C23.707 18.5526 22.8874 19.6228 22.3459 19.4106C22.0233 19.284 21.9556 18.8104 21.9556 16.6782C21.9556 15.0051 21.8524 13.9938 21.6622 13.7996C21.4769 13.6103 20.5461 13.5 19.1334 13.5C17.2439 13.5 16.8327 13.5736 16.4756 13.9766Z" fill="#FAFAFA"/>
<path d="M16.4756 13.9766C16.073 14.4309 16.0776 14.4614 16.5739 14.6222C16.8604 14.715 17.1984 15.0695 17.325 15.41C17.6653 16.324 17.6059 18.8264 17.2314 19.3494C16.9293 19.7716 16.854 19.7366 16.1231 18.8357C15.6917 18.3039 14.9217 17.0262 14.4115 15.9964L13.4843 14.1241L11.2423 14.0522L9 13.9806V14.6062C9 15.3274 10.8778 19.1689 12.3034 21.3638C14.4272 24.6339 16.6115 26.1592 19.529 26.4089C21.3931 26.5687 21.9556 26.3205 21.9556 25.3394C21.9556 24.603 22.4457 23.4858 22.7686 23.4858C22.9035 23.4858 23.7055 24.1641 24.5508 24.9929L26.0876 26.5L28.4827 26.4284L30.8778 26.3567L30.9533 25.5616C31.0186 24.8728 30.7976 24.5178 29.3033 22.9111C28.3541 21.8911 27.5778 20.9107 27.5778 20.733C27.5778 20.5552 28.1681 19.6088 28.8895 18.6299C30.4696 16.486 31 15.4819 31 14.6359V13.9993H28.4544H25.9085L24.9128 16.0589C23.707 18.5526 22.8874 19.6228 22.3459 19.4106C22.0233 19.284 21.9556 18.8104 21.9556 16.6782C21.9556 15.0051 21.8524 13.9938 21.6622 13.7996C21.4769 13.6103 20.5461 13.5 19.1334 13.5C17.2439 13.5 16.8327 13.5736 16.4756 13.9766Z" fill="#FAFAFA"/>
</svg>
